<?xml version="1.0" encoding="utf-8"?>
<!-- Generator: Adobe Illustrator 24.0.3, SVG Export Plug-In . SVG Version: 6.00 Build 0)  -->
<svg version="1.1" id="Layer_1" xmlns="http://www.w3.org/2000/svg" xmlns:xlink="http://www.w3.org/1999/xlink" x="0px" y="0px"
	 viewBox="0 0 612 792" style="enable-background:new 0 0 612 792;" xml:space="preserve">
<style type="text/css">
	.st0{fill:none;stroke:#000000;stroke-miterlimit:10;}
</style>
<g>
	<polygon class="st0" points="563.06,109.14 504.22,275.18 606.05,413.06 431.8,413.85 328.7,557.91 279.84,392.36 114.29,343.5 
		258.35,240.4 259.14,66.15 397.02,167.98 	"/>
	<polygon class="st0" points="451.78,104.75 392.94,270.78 494.77,408.67 320.52,409.46 217.42,553.51 168.56,387.96 3.01,339.11 
		147.06,236 147.86,61.76 285.74,163.58 	"/>
	<polygon class="st0" points="500.25,105.94 441.41,271.98 543.24,409.86 368.99,410.66 265.88,554.71 217.03,389.16 51.48,340.31 
		195.53,237.2 196.33,62.95 334.21,164.78 	"/>
</g>
</svg>
